<svg width="36" height="36" viewBox="0 0 36 36" fill="none" xmlns="http://www.w3.org/2000/svg">
<g id="Icon">
<path id="vector" d="M18 33C9.71573 33 3 26.2843 3 18C3 9.71573 9.71573 3 18 3C26.2843 3 33 9.71573 33 18C32.9909 26.2805 26.2805 32.9909 18 33ZM10.68 27.8175L10.6725 27.8325C14.0971 30.398 18.6139 30.9857 22.581 29.382C22.0124 26.3239 21.1695 23.3233 20.0625 20.4165C17.5199 21.303 15.1953 22.721 13.2435 24.576C12.2816 25.4868 11.4489 26.5249 10.7685 27.6615L10.758 27.678V27.663L10.731 27.7155L10.713 27.7455L10.7025 27.765L10.677 27.819L10.68 27.8175ZM25.1685 19.5675C24.43 19.5685 23.6924 19.6187 22.9605 19.7175C23.9163 22.3883 24.6684 25.1276 25.2105 27.912C27.7596 26.0744 29.4922 23.3157 30.0405 20.2215C28.4536 19.7837 26.8147 19.5622 25.1685 19.563V19.5675ZM5.7255 17.9325V18.0165C5.72824 20.9064 6.75079 23.7026 8.613 25.9125C11.0254 22.1858 14.5939 19.3534 18.771 17.85L18.9495 17.799C18.684 17.2125 18.435 16.689 18.186 16.2C14.1839 17.3221 10.0499 17.9048 5.8935 17.9325H5.7255ZM24.699 17.0235C26.5602 17.0304 28.4173 17.2 30.249 17.5305C30.1536 14.9931 29.266 12.5493 27.711 10.542C25.8963 12.5714 23.6377 14.1545 21.111 15.168L21.1545 15.15L21.108 15.1695C21.3765 15.729 21.612 16.2525 21.8085 16.719C21.855 16.83 21.894 16.926 21.93 17.019L21.9915 17.169C22.8905 17.0692 23.7945 17.0207 24.699 17.0235ZM12.5655 7.0155C9.30347 8.62556 6.92428 11.6004 6.0705 15.1365C9.56607 15.0825 13.0449 14.6408 16.443 13.8195H16.4625H16.485L16.5 13.8L16.581 13.7805H16.59L16.65 13.7685H16.6635H16.674L16.7055 13.7595L16.7655 13.7445L16.8 13.7295L16.833 13.7205H16.848H16.863C14.8635 10.2 12.7935 7.3305 12.564 7.0155H12.5655ZM18 5.75846C17.1789 5.75643 16.3595 5.8343 15.5535 5.991C17.1249 8.16838 18.5669 10.4363 19.872 12.783C22.2092 11.9506 24.2936 10.5324 25.926 8.664C23.71 6.7899 20.9022 5.76062 18 5.75846Z" fill="white"/>
</g>
</svg>
